<svg width="20" height="20" viewBox="0 0 20 20" fill="none" xmlns="http://www.w3.org/2000/svg">
<path d="M19.4641 8.881L15.4257 12.2421L16.7077 17.4272C16.7829 17.7169 16.769 18.0225 16.6677 18.3041C16.5664 18.5858 16.3825 18.8303 16.1399 19.0056C15.9056 19.1766 15.6251 19.2728 15.3351 19.2818C15.0451 19.2908 14.7592 19.212 14.5148 19.0558L10.0119 16.2031C9.9993 16.1962 9.99372 16.1989 9.98814 16.2031L5.80327 18.8542C5.53362 19.0258 5.21857 19.1123 4.89911 19.1023C4.57966 19.0924 4.27059 18.9865 4.01215 18.7984C3.74446 18.6049 3.54145 18.335 3.42969 18.0241C3.31794 17.7132 3.30264 17.3759 3.38581 17.0561L4.59245 12.3098L0.535912 8.881C0.306125 8.68952 0.139317 8.43328 0.0572106 8.14566C-0.0248957 7.85804 -0.0184962 7.55236 0.0755758 7.26843C0.164749 6.98847 0.336234 6.74189 0.567657 6.56085C0.79908 6.37982 1.07969 6.27275 1.37289 6.2536L6.64583 5.91113L8.64201 0.92974C8.7482 0.656317 8.93443 0.421302 9.17634 0.255423C9.41825 0.0895447 9.70459 0.000523534 9.99791 0H9.9993C10.2931 5.00488e-05 10.58 0.0888446 10.8224 0.254748C11.0649 0.420652 11.2516 0.655925 11.358 0.92974L13.3249 5.88254L18.6271 6.2536C18.9203 6.27275 19.2009 6.37982 19.4323 6.56085C19.6638 6.74189 19.8353 6.98847 19.9244 7.26843C20.0185 7.55236 20.0249 7.85804 19.9428 8.14566C19.8607 8.43328 19.6939 8.68951 19.4641 8.881Z" fill="url(#paint0_linear_10_39)"/>
<defs>
<linearGradient id="paint0_linear_10_39" x1="-1" y1="8" x2="19.5" y2="7.5" gradientUnits="userSpaceOnUse">
<stop offset="0.114583" stop-color="#FFE600"/>
<stop offset="0.572917" stop-color="#FFE600" stop-opacity="0"/>
</linearGradient>
</defs>
</svg>
